<?xml version="1.0" standalone="no"?>
<!DOCTYPE svg PUBLIC "-//W3C//DTD SVG 20010904//EN"
 "http://www.w3.org/TR/2001/REC-SVG-20010904/DTD/svg10.dtd">
<svg version="1.0" xmlns="http://www.w3.org/2000/svg"
 width="180.000000pt" height="180.000000pt" viewBox="0 0 180.000000 180.000000"
 preserveAspectRatio="xMidYMid meet">
<metadata>
Created by potrace 1.14, written by Peter Selinger 2001-2017
</metadata>
<g transform="translate(0.000000,180.000000) scale(0.100000,-0.100000)"
fill="#000000" stroke="none">
<path d="M618 1646 c-67 -24 -167 -79 -180 -100 -4 -6 -6 -240 -5 -521 l2
-510 23 -36 c40 -66 133 -85 199 -42 49 32 57 65 63 248 l5 169 259 -322 c142
-177 262 -322 266 -322 13 0 125 77 170 117 35 31 42 43 34 54 -6 8 -114 140
-239 293 l-228 280 111 105 c124 118 147 156 131 214 -12 43 -57 84 -104 93
-66 12 -101 -10 -257 -164 l-148 -146 0 291 c0 160 -3 298 -6 307 -8 21 -16
20 -96 -8z"/>
</g>
</svg>
