<svg width="69" height="74" viewBox="0 0 69 74" fill="none" xmlns="http://www.w3.org/2000/svg">
    <path d="M61.777 20.5228V70.1605C61.777 71.849 60.359 73.2146 58.6057 73.2146H9.67623C7.92293 73.2146 6.50488 71.849 6.50488 70.1605V3.84315C6.50488 2.15468 7.92293 0.789062 9.67623 0.789062H41.2855L61.777 20.5228Z"
          fill="white"/>
    <path fill-rule="evenodd" clip-rule="evenodd"
          d="M9.67636 1.57447C8.32961 1.57447 7.29224 2.61532 7.29224 3.84132V70.1587C7.29224 71.3847 8.32961 72.4255 9.67636 72.4255H58.6058C59.9525 72.4255 60.9899 71.3847 60.9899 70.1587V20.8558L40.9682 1.57447H9.67636ZM5.71777 3.84132C5.71777 1.69038 7.5165 0 9.67636 0H41.2857C41.4893 0 41.6851 0.0789229 41.8317 0.220191L62.3232 19.954C62.4773 20.1024 62.5644 20.3071 62.5644 20.521V70.1587C62.5644 72.3096 60.7656 74 58.6058 74H9.67636C7.5165 74 5.71777 72.3096 5.71777 70.1587V3.84132Z"
          fill="#777777"/>
    <path fill-rule="evenodd" clip-rule="evenodd"
          d="M40.8097 0C41.2445 0 41.5969 0.352457 41.5969 0.787234V16.8969C41.5969 18.0239 42.623 19.0593 44.0544 19.0593H60.822C61.2568 19.0593 61.6092 19.4118 61.6092 19.8466C61.6092 20.2814 61.2568 20.6338 60.822 20.6338H44.0544C41.898 20.6338 40.0225 19.0313 40.0225 16.8969V0.787234C40.0225 0.352457 40.3749 0 40.8097 0Z"
          fill="#777777"/>
    <path d="M67.4948 33.1875H0.787109V59.8706H67.4948V33.1875Z" fill="white"/>
    <path fill-rule="evenodd" clip-rule="evenodd"
          d="M0 33.1857C0 32.7509 0.352457 32.3984 0.787234 32.3984H67.495C67.9297 32.3984 68.2822 32.7509 68.2822 33.1857V59.8688C68.2822 60.3035 67.9297 60.656 67.495 60.656H0.787234C0.352457 60.656 0 60.3035 0 59.8688V33.1857ZM1.57447 33.9729V59.0815H66.7077V33.9729H1.57447Z"
          fill="#777777"/>
    <path fill-rule="evenodd" clip-rule="evenodd"
          d="M61.2198 26.9103C61.5273 26.6028 62.0257 26.6028 62.3332 26.9103L68.051 32.6281C68.3584 32.9355 68.3584 33.434 68.051 33.7414C67.7435 34.0488 67.2451 34.0488 66.9376 33.7414L61.2198 28.0236C60.9124 27.7161 60.9124 27.2177 61.2198 26.9103Z"
          fill="#777777"/>
    <path fill-rule="evenodd" clip-rule="evenodd"
          d="M0.230576 59.3165C0.53801 59.0091 1.03646 59.0091 1.34389 59.3165L7.0617 65.0343C7.36913 65.3418 7.36913 65.8402 7.0617 66.1476C6.75426 66.4551 6.25581 66.4551 5.94838 66.1476L0.230576 60.4298C-0.0768585 60.1224 -0.0768585 59.6239 0.230576 59.3165Z"
          fill="#777777"/>
    <path d="M42.8253 53.102C42.5598 53.102 42.3364 53.0115 42.1554 52.8304C41.9743 52.6494 41.8838 52.4261 41.8838 52.1605V39.9025C41.8838 39.6248 41.9743 39.4015 42.1554 39.2325C42.3364 39.0515 42.5598 38.9609 42.8253 38.9609H51.0094C51.287 38.9609 51.5103 39.0454 51.6793 39.2144C51.8483 39.3713 51.9328 39.5826 51.9328 39.8481C51.9328 40.1016 51.8483 40.3068 51.6793 40.4638C51.5103 40.6207 51.287 40.6991 51.0094 40.6991H43.7669V45.099H48.9634C49.241 45.099 49.4643 45.1835 49.6333 45.3525C49.8023 45.5094 49.8868 45.7146 49.8868 45.9681C49.8868 46.2216 49.8023 46.4328 49.6333 46.6018C49.4643 46.7588 49.241 46.8372 48.9634 46.8372H43.7669V52.1605C43.7669 52.4261 43.6763 52.6494 43.4953 52.8304C43.3142 53.0115 43.0909 53.102 42.8253 53.102Z"
          fill="#E4076D"/>
    <path d="M29.7853 53.102C29.5197 53.102 29.2964 53.0115 29.1153 52.8304C28.9343 52.6494 28.8438 52.4261 28.8438 52.1605V39.9025C28.8438 39.6248 28.9343 39.4015 29.1153 39.2325C29.2964 39.0515 29.5197 38.9609 29.7853 38.9609H33.0625C34.1006 38.9609 35.0422 39.136 35.8871 39.486C36.7442 39.824 37.4865 40.3129 38.1142 40.9526C38.7419 41.5803 39.2247 42.3227 39.5627 43.1797C39.9007 44.0368 40.0697 44.9843 40.0697 46.0224C40.0697 47.0605 39.9007 48.0141 39.5627 48.8832C39.2247 49.7403 38.7419 50.4887 38.1142 51.1284C37.4865 51.7561 36.7442 52.245 35.8871 52.595C35.0422 52.933 34.1006 53.102 33.0625 53.102H29.7853ZM30.7268 51.4362H33.0625C34.0765 51.4362 34.9697 51.2069 35.7423 50.7482C36.5269 50.2774 37.1425 49.6377 37.5891 48.8289C38.0358 48.0081 38.2591 47.0726 38.2591 46.0224C38.2591 44.9602 38.0358 44.0247 37.5891 43.2159C37.1425 42.4072 36.5269 41.7735 35.7423 41.3148C34.9697 40.8561 34.0765 40.6267 33.0625 40.6267H30.7268V51.4362Z"
          fill="#E4076D"/>
    <path d="M18.504 53.102C18.2385 53.102 18.0152 53.0115 17.8341 52.8304C17.653 52.6494 17.5625 52.4261 17.5625 52.1605V39.9025C17.5625 39.6248 17.653 39.4015 17.8341 39.2325C18.0152 39.0515 18.2385 38.9609 18.504 38.9609H22.1253C23.0306 38.9609 23.8333 39.1601 24.5335 39.5584C25.2336 39.9568 25.7768 40.5121 26.163 41.2242C26.5614 41.9243 26.7605 42.7331 26.7605 43.6505C26.7605 44.5317 26.5614 45.3163 26.163 46.0043C25.7768 46.6924 25.2336 47.2295 24.5335 47.6158C23.8333 48.0021 23.0306 48.1952 22.1253 48.1952H19.4456V52.1605C19.4456 52.4261 19.355 52.6494 19.174 52.8304C19.005 53.0115 18.7817 53.102 18.504 53.102ZM19.4456 46.457H22.1253C22.6806 46.457 23.1694 46.3363 23.5919 46.0949C24.0144 45.8534 24.3464 45.5215 24.5878 45.099C24.8292 44.6765 24.9499 44.1937 24.9499 43.6505C24.9499 43.0711 24.8292 42.5641 24.5878 42.1296C24.3464 41.6829 24.0144 41.3329 23.5919 41.0794C23.1694 40.8259 22.6806 40.6991 22.1253 40.6991H19.4456V46.457Z"
          fill="#E4076D"/>
</svg>
