<svg width="90" height="90" viewBox="0 0 90 90" fill="none" xmlns="http://www.w3.org/2000/svg">
<circle cx="86.7969" cy="2.5" r="2.5" transform="rotate(180 86.7969 2.5)" fill="#CFCFCF"/>
<circle cx="86.7969" cy="23.5781" r="2.5" transform="rotate(180 86.7969 23.5781)" fill="#CFCFCF"/>
<circle cx="86.7969" cy="44.6562" r="2.5" transform="rotate(180 86.7969 44.6562)" fill="#CFCFCF"/>
<circle cx="86.7969" cy="65.7266" r="2.5" transform="rotate(180 86.7969 65.7266)" fill="#CFCFCF"/>
<circle cx="86.7969" cy="86.8047" r="2.5" transform="rotate(180 86.7969 86.8047)" fill="#CFCFCF"/>
<circle cx="65.7227" cy="2.5" r="2.5" transform="rotate(180 65.7227 2.5)" fill="#CFCFCF"/>
<circle cx="65.7227" cy="23.5781" r="2.5" transform="rotate(180 65.7227 23.5781)" fill="#CFCFCF"/>
<circle cx="65.7227" cy="44.6562" r="2.5" transform="rotate(180 65.7227 44.6562)" fill="#CFCFCF"/>
<circle cx="65.7227" cy="65.7266" r="2.5" transform="rotate(180 65.7227 65.7266)" fill="#CFCFCF"/>
<circle cx="65.7227" cy="86.8047" r="2.5" transform="rotate(180 65.7227 86.8047)" fill="#CFCFCF"/>
<circle cx="44.6484" cy="2.5" r="2.5" transform="rotate(180 44.6484 2.5)" fill="#CFCFCF"/>
<circle cx="44.6484" cy="23.5781" r="2.5" transform="rotate(180 44.6484 23.5781)" fill="#CFCFCF"/>
<circle cx="44.6484" cy="44.6562" r="2.5" transform="rotate(180 44.6484 44.6562)" fill="#CFCFCF"/>
<circle cx="44.6484" cy="65.7266" r="2.5" transform="rotate(180 44.6484 65.7266)" fill="#CFCFCF"/>
<circle cx="44.6484" cy="86.8047" r="2.5" transform="rotate(180 44.6484 86.8047)" fill="#CFCFCF"/>
<circle cx="23.5703" cy="2.5" r="2.5" transform="rotate(180 23.5703 2.5)" fill="#CFCFCF"/>
<circle cx="23.5703" cy="23.5781" r="2.5" transform="rotate(180 23.5703 23.5781)" fill="#CFCFCF"/>
<circle cx="23.5703" cy="44.6562" r="2.5" transform="rotate(180 23.5703 44.6562)" fill="#CFCFCF"/>
<circle cx="23.5703" cy="65.7266" r="2.5" transform="rotate(180 23.5703 65.7266)" fill="#CFCFCF"/>
<circle cx="23.5703" cy="86.8047" r="2.5" transform="rotate(180 23.5703 86.8047)" fill="#CFCFCF"/>
<circle cx="2.5" cy="2.5" r="2.5" transform="rotate(180 2.5 2.5)" fill="#CFCFCF"/>
<circle cx="2.5" cy="23.5781" r="2.5" transform="rotate(180 2.5 23.5781)" fill="#CFCFCF"/>
<circle cx="2.5" cy="44.6562" r="2.5" transform="rotate(180 2.5 44.6562)" fill="#CFCFCF"/>
<circle cx="2.5" cy="65.7266" r="2.5" transform="rotate(180 2.5 65.7266)" fill="#CFCFCF"/>
<circle cx="2.5" cy="86.8047" r="2.5" transform="rotate(180 2.5 86.8047)" fill="#CFCFCF"/>
</svg>
