<svg width="100" height="35" viewBox="0 0 100 35" fill="none" xmlns="http://www.w3.org/2000/svg">
<path d="M33.7359 14.0596H33.076C31.2354 14.0596 30.0547 13.2497 30.0547 11.4084C30.0547 9.567 31.2354 8.75935 33.076 8.75935H33.7359V5.00254C33.7359 3.34757 34.9144 2.02344 36.6038 2.02344C38.2933 2.02344 39.474 3.34831 39.474 5.00254V8.75935H41.8518C43.6865 8.75935 44.8657 9.5655 44.8657 11.4084C44.8657 13.2512 43.6872 14.0596 41.8518 14.0596H39.474V25.5808C39.474 27.2358 38.2993 28.5636 36.6038 28.5636C34.9084 28.5636 33.7359 27.235 33.7359 25.5808V14.0596Z" fill="#E4076D"/>
<path d="M0 2.97503C0 1.32081 1.17844 -0.0078125 2.86941 -0.0078125C4.56038 -0.0078125 5.73733 1.32081 5.73733 2.97503V15.1938L10.4122 10.5186C11.4058 9.52606 12.2506 8.53203 13.6497 8.53203C15.3429 8.53203 16.4488 9.78205 16.4488 11.1833C16.4488 12.2132 15.7889 12.8772 14.4219 14.1998L11.3303 17.2553L21.1596 29.4815C21.7492 30.2181 22.5228 31.1769 22.5228 32.022C22.5228 33.1223 21.6781 34.6733 19.6863 34.6733C18.362 34.6733 17.7747 34.2646 16.561 32.7204L5.81215 19.0989H5.73733V25.5758C5.73733 27.2307 4.56263 28.5549 2.86941 28.5549C1.1762 28.5549 0 27.2307 0 25.5758V2.97503Z" fill="#E4076D"/>
<path d="M25.0178 -0.0078125C26.8973 -0.0078125 28.4416 1.5012 28.4416 3.41366C28.4416 5.32612 26.8973 6.83888 25.0178 6.83888C23.1382 6.83888 21.5977 5.32987 21.5977 3.41366C21.5977 1.49746 23.1412 -0.0078125 25.0178 -0.0078125ZM22.1461 11.5134C22.1461 9.8569 23.3245 8.53203 25.0178 8.53203C26.711 8.53203 27.8879 9.8569 27.8879 11.5134V25.5758C27.8879 27.2307 26.7132 28.5549 25.0178 28.5549C23.3223 28.5549 22.1461 27.23 22.1461 25.5758V11.5134Z" fill="#E4076D"/>
<path d="M51.1483 20.4244C51.1483 21.6444 52.0693 23.6295 55.7468 23.6295C58.5811 23.6295 60.308 21.8256 61.6375 21.8256C62.9671 21.8256 64.0266 22.8196 64.0266 24.292C64.0266 27.0899 59.357 28.9298 55.0143 28.9298C48.8325 28.9298 44.9688 24.3279 44.9688 18.5478C44.9688 12.7678 49.1288 8.17188 55.0143 8.17188C60.8998 8.17188 64.3199 12.9175 64.3199 17.9228C64.3199 19.9505 63.3667 20.4244 61.5283 20.4244H51.149H51.1483ZM58.5811 16.4902C58.5811 15.199 57.1101 13.0275 54.8684 13.0275C52.6268 13.0275 51.1483 15.199 51.1483 16.4902H58.5811Z" fill="#E4076D"/>
<path d="M68.9874 14.0596H68.3215C66.4831 14.0596 65.3047 13.2497 65.3047 11.4084C65.3047 9.567 66.4831 8.75935 68.3215 8.75935H68.9874V5.00254C68.9874 3.34757 70.1644 2.02344 71.8553 2.02344C73.5463 2.02344 74.7232 3.34831 74.7232 5.00254V8.75935H77.0973C78.9395 8.75935 80.1164 9.5655 80.1164 11.4084C80.1164 13.2512 78.9395 14.0596 77.0973 14.0596H74.7232V25.5808C74.7232 27.2358 73.5485 28.5636 71.8553 28.5636C70.1621 28.5636 68.9874 27.235 68.9874 25.5808V14.0596Z" fill="#E4076D"/>
<path d="M85.189 14.0596H84.5231C82.6825 14.0596 81.5078 13.2497 81.5078 11.4084C81.5078 9.567 82.6825 8.75935 84.5231 8.75935H85.189V5.00254C85.189 3.34757 86.3675 2.02344 88.057 2.02344C89.7464 2.02344 90.9309 3.34831 90.9309 5.00254V8.75935H93.299C95.1433 8.75935 96.318 9.5655 96.318 11.4084C96.318 13.2512 95.1433 14.0596 93.299 14.0596H90.9309V25.5808C90.9309 27.2358 89.7524 28.5636 88.057 28.5636C86.3615 28.5636 85.189 27.235 85.189 25.5808V14.0596Z" fill="#E4076D"/>
<path d="M94.0938 3.76559V3.74912C94.0938 2.1428 95.4009 0.78125 97.0515 0.78125C98.702 0.78125 99.9979 2.12634 99.9979 3.73415V3.74912C99.9979 5.3517 98.6945 6.71924 97.0387 6.71924C95.3829 6.71924 94.0945 5.37415 94.0945 3.76634M99.6567 3.74987V3.7349C99.6567 2.28876 98.5397 1.10985 97.0515 1.10985C95.5633 1.10985 94.4387 2.30373 94.4387 3.74987V3.76634C94.4387 5.20649 95.5535 6.38914 97.038 6.38914C98.5224 6.38914 99.656 5.19152 99.656 3.74912M95.7511 2.09415H97.2108C97.7069 2.09415 98.0466 2.22439 98.2666 2.4452C98.4476 2.6241 98.5389 2.85914 98.5389 3.16004V3.17875C98.5389 3.66005 98.2853 3.97517 97.8917 4.13985L98.6429 5.23268H97.6381L97.0058 4.27758H96.6235V5.23268H95.7511V2.09415ZM97.1929 3.60166C97.4951 3.60166 97.6665 3.46169 97.6665 3.23265V3.21767C97.6665 2.96617 97.4779 2.84491 97.1854 2.84491H96.6242V3.60241H97.1929V3.60166Z" fill="#E4076D"/>
</svg>
