<svg width="92" height="93" viewBox="0 0 92 93" fill="none" xmlns="http://www.w3.org/2000/svg">
<mask id="path-1-outside-1_1112_10566" maskUnits="userSpaceOnUse" x="0" y="0" width="92" height="93" fill="black">
<rect fill="white" width="92" height="93"/>
<path d="M77.1799 91.9976C75.41 90.4455 73.6518 88.8791 71.8654 87.346C66.7067 82.9218 61.5173 78.5332 56.3798 74.0877C52.9037 71.0806 51.0158 67.1706 50.2677 62.6777C49.2175 56.3555 48.932 49.9645 48.6677 43.5758C48.611 42.2299 48.7597 40.8721 47.6553 39.7583C46.3597 38.4503 44.8541 37.6825 43.0795 37.2465C41.4063 36.8341 40.1721 37.327 39.2446 38.6754C38.4305 39.8602 37.6116 41.0237 37.9585 42.6659C38.1331 43.4905 37.9845 44.4408 37.765 45.2773C37.2907 47.0711 36.6629 48.827 36.1154 50.6019C35.8063 51.6067 35.5868 51.7536 34.5909 51.4645C29.2434 49.9171 23.8959 48.3697 18.5508 46.8128C17.4629 46.4953 17.3496 46.2275 17.7885 45.1375C19.6222 40.5877 21.4534 36.0356 23.3059 31.4953C23.5585 30.8792 23.9242 30.3081 24.2428 29.7086C22.8316 29.4953 21.4487 29.2868 20.0658 29.0711C19.8346 29.0356 19.608 28.9574 19.3815 28.8958C17.7909 28.4503 16.9626 28.7275 16.1814 30.218C15.6929 31.1493 15.4357 32.2014 15.0558 33.1943C14.7183 34.0759 14.4918 35.0379 13.9726 35.7986C13.4086 36.6256 12.6864 37.5285 11.818 37.936C8.5 39.4905 5.07816 40.109 1.65396 38.1635C1.36369 37.9977 0.988472 37.6327 1.00027 37.3768C1.01207 37.0948 1.37549 36.7299 1.67284 36.5758C3.19025 35.7891 4.76194 35.1067 6.26755 34.301C9.26933 32.6943 11.1572 30.1564 12.0257 26.891C13.2575 22.2631 16.0682 19.0711 20.4953 17.3531C23.8464 16.0522 27.2352 14.8555 30.6074 13.6138C33.2482 12.6422 35.9384 12.6943 38.4824 13.7275C42.2323 15.2488 46.086 15.7654 50.0789 15.6067C50.5202 15.5901 50.9804 15.5616 51.3981 15.6683C51.66 15.7346 51.9951 16.0142 52.0494 16.256C52.1037 16.4977 51.9291 16.9574 51.7214 17.0664C48.1627 18.9455 44.755 21.2536 40.5308 21.3602C39.8677 21.3768 39.4146 21.5522 39.096 22.1351C38.9426 22.4171 38.7042 22.6517 38.5013 22.9076C38.303 23.1564 38.1048 23.4052 37.8429 23.7323C40.073 24.1635 42.1921 24.7086 44.3444 24.9574C46.8529 25.2488 48.9296 24.1896 50.6453 22.3602C52.9296 19.9218 55.2258 17.4977 57.5479 15.0972C57.8382 14.7986 58.3527 14.5024 58.709 14.5593C58.9757 14.6019 59.2612 15.1872 59.3509 15.5735C60.7432 21.6659 61.4795 27.8389 60.8494 34.0759C60.2854 39.6588 58.2134 44.7891 55.4901 49.6517C55.122 50.3081 55.1361 50.7488 55.6199 51.2654C56.4246 52.128 57.1491 53.0758 58.0152 53.8697C59.7804 55.4905 61.5739 55.7891 63.5893 54.4787C65.1987 53.4313 66.7067 52.1256 67.9834 50.6872C70.82 47.4953 72.9014 43.8389 73.9893 39.6517C74.2324 38.7157 74.584 37.7868 75.0324 36.9313C75.8867 35.2962 77.5928 34.4953 79.4123 34.7441C80.335 34.8697 81.0949 35.6067 81.0454 36.7536C80.9651 38.6327 80.7787 40.5261 80.4342 42.3744C79.7474 46.064 78.8696 49.718 78.1946 53.4076C77.9917 54.5142 78.0979 55.7133 78.2442 56.8436C78.702 60.3886 78.433 63.8792 77.6212 67.3341C77.4725 67.9668 77.607 68.2773 78.1309 68.6303C82.1687 71.3531 86.1852 74.109 90.2065 76.8578C90.4495 77.0237 90.7658 77.1683 90.8838 77.4052C91.0065 77.6517 91.056 78.1066 90.9121 78.2749C90.7351 78.481 90.3197 78.5664 90.013 78.5545C89.784 78.545 89.5575 78.3033 89.338 78.154C85.069 75.2441 80.8094 72.3246 76.5309 69.4313C75.9126 69.0119 75.679 68.6066 75.8867 67.8175C76.899 63.9716 77.0548 60.0995 76.6229 56.1161C76.3846 53.9123 76.8896 51.5877 77.2932 49.3602C77.876 46.1327 78.6996 42.9503 79.3581 39.7346C79.5398 38.8484 79.5327 37.9147 79.5492 37.0024C79.5586 36.41 79.2047 36.2204 78.6052 36.2773C77.4229 36.391 76.5899 36.9645 76.1887 38.064C75.6625 39.5048 75.2542 40.9905 74.7232 42.4313C72.9793 47.1588 70.2158 51.1991 66.4117 54.4882C65.5975 55.192 64.6276 55.7607 63.6506 56.2204C61.5173 57.2251 59.4689 56.9739 57.5833 55.5237C55.1668 53.6635 53.5361 51.1659 52.0234 48.5782C51.4736 47.6375 50.9686 46.6683 50.3102 45.7228C50.3526 46.6019 50.3621 47.4834 50.4447 48.3602C50.9025 53.1588 51.2329 57.9787 51.8913 62.7512C52.4883 67.0616 54.6335 70.6043 57.9893 73.4408C64.5781 79.0095 71.1079 84.6493 77.6566 90.2654C78.6218 91.0924 78.6312 91.2583 77.8784 92H77.1704L77.1799 91.9976ZM36.4317 43.5356C36.3939 42.6872 36.1933 41.8934 36.3585 41.1896C36.8541 39.0877 37.9207 37.3247 39.7567 36.0782C40.0399 35.8863 40.2854 35.4574 40.3255 35.1114C40.5379 33.2607 40.6865 31.4052 40.847 29.5474C40.9485 28.3555 41.0311 27.1612 41.1208 25.9716C40.0895 25.7583 39.1998 25.4455 38.3054 25.4242C37.3685 25.4029 36.2358 25.3744 35.5207 25.8507C32.9013 27.6019 30.119 28.8294 27.0204 29.3768C26.6664 29.4384 26.2535 29.6849 26.0411 29.974C24.0139 32.7228 23.3272 36.0806 21.8263 39.1777C26.7632 40.6517 31.5703 42.0853 36.434 43.5356H36.4317ZM48.0234 17.2488C47.8559 17.1991 47.7804 17.1564 47.7048 17.1588C44.4034 17.2488 41.293 16.4503 38.2346 15.2654C35.9172 14.3697 33.5196 14.2109 31.1361 15.0806C27.6481 16.3555 24.1461 17.5877 20.6983 18.9597C17.2387 20.3365 14.9449 22.8934 13.7767 26.4479C13.5643 27.0924 13.4416 27.7702 13.208 28.4052C11.9431 31.8318 9.70826 34.3958 6.41858 36.0071C5.54542 36.436 4.67698 36.8768 3.61267 37.41C6.31002 38.1635 8.64632 37.6493 10.9 36.692C12.5661 35.9858 13.0687 34.3744 13.5667 32.8081C13.6564 32.5261 13.7484 32.2441 13.8121 31.955C14.3384 29.5427 15.7732 27.8128 17.8688 26.6185C18.8127 26.0806 19.7921 25.5806 20.8045 25.1943C24.6582 23.7228 28.5567 22.3673 32.3892 20.8436C34.5791 19.974 36.7715 19.5664 39.1196 19.7868C42.3644 20.0901 45.2081 18.8744 48.0211 17.2488H48.0234ZM53.9963 48.9479C60.2807 38.8294 60.5261 28.0735 58.1002 17.2512C57.109 18.1327 56.0164 19.0403 55.004 20.0308C54.3574 20.6635 54.1332 21.4905 54.3833 22.41C55.3108 25.8176 55.5279 29.2891 55.1668 32.7844C54.7704 36.6446 53.6046 40.2796 51.7261 43.6801C51.6152 43.8815 51.5444 44.2157 51.6341 44.3981C52.3939 45.9195 53.1963 47.4171 53.9963 48.9455V48.9479ZM36.0706 45.0664C31.1502 43.5948 26.2299 42.1256 21.2717 40.6446C20.6204 42.2631 20.0045 43.7915 19.3555 45.4076C24.5001 46.9052 29.5691 48.3815 34.6806 49.8697C35.1502 48.2441 35.5939 46.7157 36.0706 45.0687V45.0664ZM53.0004 23.4763C52.9131 23.4408 52.8258 23.4076 52.7409 23.3721C51.9739 24.6517 50.9757 25.8507 50.5013 27.2323C49.9302 28.8887 48.8164 29.8555 47.4712 30.7275C47.3981 30.7749 47.3249 30.827 47.2541 30.8792C46.3904 31.4905 46.3644 31.6659 47.037 32.4597C47.2281 32.6849 47.4311 32.9005 47.6411 33.1067C48.6228 34.0569 49.2435 35.1754 49.5007 36.545C49.7344 37.7868 50.1261 39.0024 50.4683 40.2228C50.5816 40.6232 50.7609 41.0048 50.9827 41.5901C53.7721 35.5972 54.3314 29.6375 52.9981 23.4787L53.0004 23.4763ZM41.9514 35.474C44.1815 35.7986 46.3314 36.3578 48.0942 38.019C47.9762 36.1232 47.7166 35.5119 46.6405 34.3199C46.1874 33.8176 45.7084 33.3199 45.352 32.7512C44.67 31.6612 44.9131 30.6659 45.9562 29.9005C46.3833 29.5877 46.7845 29.2109 47.2518 28.9787C48.7526 28.2394 48.7998 26.6327 49.5125 25.41C47.3296 26.5095 45.0972 26.8958 42.6924 26.2796C42.4376 29.1256 42.1921 31.8602 41.9514 34.5972C41.9278 34.8578 41.9491 35.1209 41.9491 35.474H41.9514ZM19.9384 27.1801C26.7891 29.5853 35.0488 25.7417 37.7249 21.0569C36.4033 21.3555 35.2281 21.5 34.1402 21.8887C30.7325 23.1043 27.3602 24.4123 23.9714 25.6825C22.6287 26.1849 21.2835 26.6801 19.9384 27.1778V27.1801Z"/>
<path d="M68.6843 1.00237C69.1421 1.52133 69.1233 2.01185 68.7126 2.58057C66.466 5.68957 64.2454 8.8199 62.0105 11.9384C61.6825 12.3957 61.2908 12.8223 60.7055 12.3602C60.1274 11.9052 60.4554 11.4431 60.7858 10.981C63.0041 7.88862 65.2106 4.78436 67.4265 1.6872C67.5964 1.44787 67.7923 1.22986 67.9763 1C68.2123 1 68.4483 1 68.6843 1V1.00237Z"/>
<path d="M23.3862 63.109C26.8033 64.481 30.1308 65.8152 33.5007 67.1682C34.7089 63.6398 35.6741 60.1588 35.1502 56.4408C35.0629 55.8246 35.0039 55.2062 34.9378 54.59C34.8788 54.0498 35.0488 53.5474 35.634 53.6043C35.9361 53.6327 36.3939 54.0758 36.4482 54.3886C37.0311 57.8128 36.9579 61.199 35.9432 64.5711C34.2393 70.2275 32.6464 75.9194 30.9921 81.59C30.0552 84.8009 27.3154 86.3341 24.1248 85.417C19.1714 83.9929 14.2251 82.5497 9.28113 81.0924C6.21327 80.1896 4.65339 77.3791 5.53598 74.2938C7.26106 68.2725 9.03806 62.2654 10.7655 56.2464C11.6717 53.0924 13.5667 50.5355 15.6009 48.0663C15.7755 47.8554 16.3065 47.9408 16.6699 47.891C16.7171 48.2559 16.9295 48.7204 16.7809 48.9668C16.3443 49.6967 15.7732 50.3507 15.2375 51.019C13.621 53.0355 12.5779 55.3294 11.9053 57.8152C11.7803 58.2749 11.8652 58.5118 12.323 58.6919C15.4994 59.9455 18.6664 61.2204 21.9113 62.5166C22.6381 60.0142 23.3531 57.5498 24.0682 55.0853C24.3065 54.263 24.5425 53.4384 24.7832 52.6161C24.9343 52.1066 25.2245 51.7275 25.8027 51.9171C26.3502 52.0972 26.4304 52.5308 26.2723 53.0711C25.385 56.1066 24.5142 59.1445 23.6387 62.1825C23.5585 62.4644 23.4829 62.7464 23.3815 63.1137L23.3862 63.109ZM11.3437 59.9692C11.2564 60.1896 11.2044 60.2962 11.1714 60.4076C9.80738 65.1185 8.43629 69.827 7.08407 74.5426C6.37139 77.0237 7.39558 78.891 9.85222 79.6137C14.7112 81.0403 19.575 82.455 24.4387 83.8673C26.9449 84.5948 28.8092 83.564 29.5408 81.0521C30.2181 78.7251 30.8788 76.3957 31.5514 74.0663C32.0635 72.2891 32.5827 70.5118 33.1089 68.699C29.6753 67.3199 26.329 65.9763 22.9472 64.6185C22.7703 65.2133 22.6263 65.6919 22.4871 66.173C22.1567 67.308 21.8759 68.4621 21.4652 69.564C21.352 69.8649 20.8422 70.0166 20.5142 70.2346C20.3443 69.8768 20.1248 69.5308 20.0257 69.154C19.9738 68.9573 20.1295 68.7038 20.1956 68.4763C20.618 67.0095 21.0428 65.5403 21.4794 64.0237C18.0717 62.6588 14.7443 61.327 11.3484 59.9692H11.3437Z"/>
<path d="M20.3868 58.0475C19.1432 57.6683 18.034 57.3697 16.9626 56.9669C16.7573 56.8887 16.552 56.3508 16.6252 56.1115C16.6983 55.8721 17.1656 55.5475 17.3874 55.5949C18.4777 55.8318 19.5562 56.1423 20.604 56.5214C20.8234 56.5996 21.0405 57.0996 21.0004 57.3674C20.9603 57.628 20.5898 57.8366 20.3845 58.0498L20.3868 58.0475Z"/>
<path d="M19.7119 52.391C20.4836 52.6398 21.1278 52.7748 21.6918 53.0663C21.8995 53.1729 22.0765 53.7014 21.9892 53.9336C21.8995 54.1753 21.4582 54.4549 21.201 54.4289C20.6275 54.3673 20.0399 54.1895 19.5254 53.9289C19.2989 53.8128 19.0983 53.3625 19.1313 53.0924C19.162 52.8365 19.5113 52.6184 19.7095 52.3957L19.7119 52.391Z"/>
<path d="M17.7744 67.6492C16.5331 67.2748 15.4499 66.9976 14.4115 66.5995C14.1897 66.5142 13.9891 65.9668 14.0434 65.6848C14.0859 65.4691 14.5885 65.1516 14.8174 65.2014C15.903 65.4383 16.9838 65.744 18.0245 66.1327C18.244 66.2156 18.4328 66.763 18.3903 67.0592C18.3573 67.3009 17.9537 67.4881 17.772 67.6492H17.7744Z"/>
</mask>
<path d="M77.1799 91.9976C75.41 90.4455 73.6518 88.8791 71.8654 87.346C66.7067 82.9218 61.5173 78.5332 56.3798 74.0877C52.9037 71.0806 51.0158 67.1706 50.2677 62.6777C49.2175 56.3555 48.932 49.9645 48.6677 43.5758C48.611 42.2299 48.7597 40.8721 47.6553 39.7583C46.3597 38.4503 44.8541 37.6825 43.0795 37.2465C41.4063 36.8341 40.1721 37.327 39.2446 38.6754C38.4305 39.8602 37.6116 41.0237 37.9585 42.6659C38.1331 43.4905 37.9845 44.4408 37.765 45.2773C37.2907 47.0711 36.6629 48.827 36.1154 50.6019C35.8063 51.6067 35.5868 51.7536 34.5909 51.4645C29.2434 49.9171 23.8959 48.3697 18.5508 46.8128C17.4629 46.4953 17.3496 46.2275 17.7885 45.1375C19.6222 40.5877 21.4534 36.0356 23.3059 31.4953C23.5585 30.8792 23.9242 30.3081 24.2428 29.7086C22.8316 29.4953 21.4487 29.2868 20.0658 29.0711C19.8346 29.0356 19.608 28.9574 19.3815 28.8958C17.7909 28.4503 16.9626 28.7275 16.1814 30.218C15.6929 31.1493 15.4357 32.2014 15.0558 33.1943C14.7183 34.0759 14.4918 35.0379 13.9726 35.7986C13.4086 36.6256 12.6864 37.5285 11.818 37.936C8.5 39.4905 5.07816 40.109 1.65396 38.1635C1.36369 37.9977 0.988472 37.6327 1.00027 37.3768C1.01207 37.0948 1.37549 36.7299 1.67284 36.5758C3.19025 35.7891 4.76194 35.1067 6.26755 34.301C9.26933 32.6943 11.1572 30.1564 12.0257 26.891C13.2575 22.2631 16.0682 19.0711 20.4953 17.3531C23.8464 16.0522 27.2352 14.8555 30.6074 13.6138C33.2482 12.6422 35.9384 12.6943 38.4824 13.7275C42.2323 15.2488 46.086 15.7654 50.0789 15.6067C50.5202 15.5901 50.9804 15.5616 51.3981 15.6683C51.66 15.7346 51.9951 16.0142 52.0494 16.256C52.1037 16.4977 51.9291 16.9574 51.7214 17.0664C48.1627 18.9455 44.755 21.2536 40.5308 21.3602C39.8677 21.3768 39.4146 21.5522 39.096 22.1351C38.9426 22.4171 38.7042 22.6517 38.5013 22.9076C38.303 23.1564 38.1048 23.4052 37.8429 23.7323C40.073 24.1635 42.1921 24.7086 44.3444 24.9574C46.8529 25.2488 48.9296 24.1896 50.6453 22.3602C52.9296 19.9218 55.2258 17.4977 57.5479 15.0972C57.8382 14.7986 58.3527 14.5024 58.709 14.5593C58.9757 14.6019 59.2612 15.1872 59.3509 15.5735C60.7432 21.6659 61.4795 27.8389 60.8494 34.0759C60.2854 39.6588 58.2134 44.7891 55.4901 49.6517C55.122 50.3081 55.1361 50.7488 55.6199 51.2654C56.4246 52.128 57.1491 53.0758 58.0152 53.8697C59.7804 55.4905 61.5739 55.7891 63.5893 54.4787C65.1987 53.4313 66.7067 52.1256 67.9834 50.6872C70.82 47.4953 72.9014 43.8389 73.9893 39.6517C74.2324 38.7157 74.584 37.7868 75.0324 36.9313C75.8867 35.2962 77.5928 34.4953 79.4123 34.7441C80.335 34.8697 81.0949 35.6067 81.0454 36.7536C80.9651 38.6327 80.7787 40.5261 80.4342 42.3744C79.7474 46.064 78.8696 49.718 78.1946 53.4076C77.9917 54.5142 78.0979 55.7133 78.2442 56.8436C78.702 60.3886 78.433 63.8792 77.6212 67.3341C77.4725 67.9668 77.607 68.2773 78.1309 68.6303C82.1687 71.3531 86.1852 74.109 90.2065 76.8578C90.4495 77.0237 90.7658 77.1683 90.8838 77.4052C91.0065 77.6517 91.056 78.1066 90.9121 78.2749C90.7351 78.481 90.3197 78.5664 90.013 78.5545C89.784 78.545 89.5575 78.3033 89.338 78.154C85.069 75.2441 80.8094 72.3246 76.5309 69.4313C75.9126 69.0119 75.679 68.6066 75.8867 67.8175C76.899 63.9716 77.0548 60.0995 76.6229 56.1161C76.3846 53.9123 76.8896 51.5877 77.2932 49.3602C77.876 46.1327 78.6996 42.9503 79.3581 39.7346C79.5398 38.8484 79.5327 37.9147 79.5492 37.0024C79.5586 36.41 79.2047 36.2204 78.6052 36.2773C77.4229 36.391 76.5899 36.9645 76.1887 38.064C75.6625 39.5048 75.2542 40.9905 74.7232 42.4313C72.9793 47.1588 70.2158 51.1991 66.4117 54.4882C65.5975 55.192 64.6276 55.7607 63.6506 56.2204C61.5173 57.2251 59.4689 56.9739 57.5833 55.5237C55.1668 53.6635 53.5361 51.1659 52.0234 48.5782C51.4736 47.6375 50.9686 46.6683 50.3102 45.7228C50.3526 46.6019 50.3621 47.4834 50.4447 48.3602C50.9025 53.1588 51.2329 57.9787 51.8913 62.7512C52.4883 67.0616 54.6335 70.6043 57.9893 73.4408C64.5781 79.0095 71.1079 84.6493 77.6566 90.2654C78.6218 91.0924 78.6312 91.2583 77.8784 92H77.1704L77.1799 91.9976ZM36.4317 43.5356C36.3939 42.6872 36.1933 41.8934 36.3585 41.1896C36.8541 39.0877 37.9207 37.3247 39.7567 36.0782C40.0399 35.8863 40.2854 35.4574 40.3255 35.1114C40.5379 33.2607 40.6865 31.4052 40.847 29.5474C40.9485 28.3555 41.0311 27.1612 41.1208 25.9716C40.0895 25.7583 39.1998 25.4455 38.3054 25.4242C37.3685 25.4029 36.2358 25.3744 35.5207 25.8507C32.9013 27.6019 30.119 28.8294 27.0204 29.3768C26.6664 29.4384 26.2535 29.6849 26.0411 29.974C24.0139 32.7228 23.3272 36.0806 21.8263 39.1777C26.7632 40.6517 31.5703 42.0853 36.434 43.5356H36.4317ZM48.0234 17.2488C47.8559 17.1991 47.7804 17.1564 47.7048 17.1588C44.4034 17.2488 41.293 16.4503 38.2346 15.2654C35.9172 14.3697 33.5196 14.2109 31.1361 15.0806C27.6481 16.3555 24.1461 17.5877 20.6983 18.9597C17.2387 20.3365 14.9449 22.8934 13.7767 26.4479C13.5643 27.0924 13.4416 27.7702 13.208 28.4052C11.9431 31.8318 9.70826 34.3958 6.41858 36.0071C5.54542 36.436 4.67698 36.8768 3.61267 37.41C6.31002 38.1635 8.64632 37.6493 10.9 36.692C12.5661 35.9858 13.0687 34.3744 13.5667 32.8081C13.6564 32.5261 13.7484 32.2441 13.8121 31.955C14.3384 29.5427 15.7732 27.8128 17.8688 26.6185C18.8127 26.0806 19.7921 25.5806 20.8045 25.1943C24.6582 23.7228 28.5567 22.3673 32.3892 20.8436C34.5791 19.974 36.7715 19.5664 39.1196 19.7868C42.3644 20.0901 45.2081 18.8744 48.0211 17.2488H48.0234ZM53.9963 48.9479C60.2807 38.8294 60.5261 28.0735 58.1002 17.2512C57.109 18.1327 56.0164 19.0403 55.004 20.0308C54.3574 20.6635 54.1332 21.4905 54.3833 22.41C55.3108 25.8176 55.5279 29.2891 55.1668 32.7844C54.7704 36.6446 53.6046 40.2796 51.7261 43.6801C51.6152 43.8815 51.5444 44.2157 51.6341 44.3981C52.3939 45.9195 53.1963 47.4171 53.9963 48.9455V48.9479ZM36.0706 45.0664C31.1502 43.5948 26.2299 42.1256 21.2717 40.6446C20.6204 42.2631 20.0045 43.7915 19.3555 45.4076C24.5001 46.9052 29.5691 48.3815 34.6806 49.8697C35.1502 48.2441 35.5939 46.7157 36.0706 45.0687V45.0664ZM53.0004 23.4763C52.9131 23.4408 52.8258 23.4076 52.7409 23.3721C51.9739 24.6517 50.9757 25.8507 50.5013 27.2323C49.9302 28.8887 48.8164 29.8555 47.4712 30.7275C47.3981 30.7749 47.3249 30.827 47.2541 30.8792C46.3904 31.4905 46.3644 31.6659 47.037 32.4597C47.2281 32.6849 47.4311 32.9005 47.6411 33.1067C48.6228 34.0569 49.2435 35.1754 49.5007 36.545C49.7344 37.7868 50.1261 39.0024 50.4683 40.2228C50.5816 40.6232 50.7609 41.0048 50.9827 41.5901C53.7721 35.5972 54.3314 29.6375 52.9981 23.4787L53.0004 23.4763ZM41.9514 35.474C44.1815 35.7986 46.3314 36.3578 48.0942 38.019C47.9762 36.1232 47.7166 35.5119 46.6405 34.3199C46.1874 33.8176 45.7084 33.3199 45.352 32.7512C44.67 31.6612 44.9131 30.6659 45.9562 29.9005C46.3833 29.5877 46.7845 29.2109 47.2518 28.9787C48.7526 28.2394 48.7998 26.6327 49.5125 25.41C47.3296 26.5095 45.0972 26.8958 42.6924 26.2796C42.4376 29.1256 42.1921 31.8602 41.9514 34.5972C41.9278 34.8578 41.9491 35.1209 41.9491 35.474H41.9514ZM19.9384 27.1801C26.7891 29.5853 35.0488 25.7417 37.7249 21.0569C36.4033 21.3555 35.2281 21.5 34.1402 21.8887C30.7325 23.1043 27.3602 24.4123 23.9714 25.6825C22.6287 26.1849 21.2835 26.6801 19.9384 27.1778V27.1801Z" fill="#E4076D"/>
<path d="M68.6843 1.00237C69.1421 1.52133 69.1233 2.01185 68.7126 2.58057C66.466 5.68957 64.2454 8.8199 62.0105 11.9384C61.6825 12.3957 61.2908 12.8223 60.7055 12.3602C60.1274 11.9052 60.4554 11.4431 60.7858 10.981C63.0041 7.88862 65.2106 4.78436 67.4265 1.6872C67.5964 1.44787 67.7923 1.22986 67.9763 1C68.2123 1 68.4483 1 68.6843 1V1.00237Z" fill="#E4076D"/>
<path d="M23.3862 63.109C26.8033 64.481 30.1308 65.8152 33.5007 67.1682C34.7089 63.6398 35.6741 60.1588 35.1502 56.4408C35.0629 55.8246 35.0039 55.2062 34.9378 54.59C34.8788 54.0498 35.0488 53.5474 35.634 53.6043C35.9361 53.6327 36.3939 54.0758 36.4482 54.3886C37.0311 57.8128 36.9579 61.199 35.9432 64.5711C34.2393 70.2275 32.6464 75.9194 30.9921 81.59C30.0552 84.8009 27.3154 86.3341 24.1248 85.417C19.1714 83.9929 14.2251 82.5497 9.28113 81.0924C6.21327 80.1896 4.65339 77.3791 5.53598 74.2938C7.26106 68.2725 9.03806 62.2654 10.7655 56.2464C11.6717 53.0924 13.5667 50.5355 15.6009 48.0663C15.7755 47.8554 16.3065 47.9408 16.6699 47.891C16.7171 48.2559 16.9295 48.7204 16.7809 48.9668C16.3443 49.6967 15.7732 50.3507 15.2375 51.019C13.621 53.0355 12.5779 55.3294 11.9053 57.8152C11.7803 58.2749 11.8652 58.5118 12.323 58.6919C15.4994 59.9455 18.6664 61.2204 21.9113 62.5166C22.6381 60.0142 23.3531 57.5498 24.0682 55.0853C24.3065 54.263 24.5425 53.4384 24.7832 52.6161C24.9343 52.1066 25.2245 51.7275 25.8027 51.9171C26.3502 52.0972 26.4304 52.5308 26.2723 53.0711C25.385 56.1066 24.5142 59.1445 23.6387 62.1825C23.5585 62.4644 23.4829 62.7464 23.3815 63.1137L23.3862 63.109ZM11.3437 59.9692C11.2564 60.1896 11.2044 60.2962 11.1714 60.4076C9.80738 65.1185 8.43629 69.827 7.08407 74.5426C6.37139 77.0237 7.39558 78.891 9.85222 79.6137C14.7112 81.0403 19.575 82.455 24.4387 83.8673C26.9449 84.5948 28.8092 83.564 29.5408 81.0521C30.2181 78.7251 30.8788 76.3957 31.5514 74.0663C32.0635 72.2891 32.5827 70.5118 33.1089 68.699C29.6753 67.3199 26.329 65.9763 22.9472 64.6185C22.7703 65.2133 22.6263 65.6919 22.4871 66.173C22.1567 67.308 21.8759 68.4621 21.4652 69.564C21.352 69.8649 20.8422 70.0166 20.5142 70.2346C20.3443 69.8768 20.1248 69.5308 20.0257 69.154C19.9738 68.9573 20.1295 68.7038 20.1956 68.4763C20.618 67.0095 21.0428 65.5403 21.4794 64.0237C18.0717 62.6588 14.7443 61.327 11.3484 59.9692H11.3437Z" fill="#E4076D"/>
<path d="M20.3868 58.0475C19.1432 57.6683 18.034 57.3697 16.9626 56.9669C16.7573 56.8887 16.552 56.3508 16.6252 56.1115C16.6983 55.8721 17.1656 55.5475 17.3874 55.5949C18.4777 55.8318 19.5562 56.1423 20.604 56.5214C20.8234 56.5996 21.0405 57.0996 21.0004 57.3674C20.9603 57.628 20.5898 57.8366 20.3845 58.0498L20.3868 58.0475Z" fill="#E4076D"/>
<path d="M19.7119 52.391C20.4836 52.6398 21.1278 52.7748 21.6918 53.0663C21.8995 53.1729 22.0765 53.7014 21.9892 53.9336C21.8995 54.1753 21.4582 54.4549 21.201 54.4289C20.6275 54.3673 20.0399 54.1895 19.5254 53.9289C19.2989 53.8128 19.0983 53.3625 19.1313 53.0924C19.162 52.8365 19.5113 52.6184 19.7095 52.3957L19.7119 52.391Z" fill="#E4076D"/>
<path d="M17.7744 67.6492C16.5331 67.2748 15.4499 66.9976 14.4115 66.5995C14.1897 66.5142 13.9891 65.9668 14.0434 65.6848C14.0859 65.4691 14.5885 65.1516 14.8174 65.2014C15.903 65.4383 16.9838 65.744 18.0245 66.1327C18.244 66.2156 18.4328 66.763 18.3903 67.0592C18.3573 67.3009 17.9537 67.4881 17.772 67.6492H17.7744Z" fill="#E4076D"/>
<path d="M77.1799 91.9976C75.41 90.4455 73.6518 88.8791 71.8654 87.346C66.7067 82.9218 61.5173 78.5332 56.3798 74.0877C52.9037 71.0806 51.0158 67.1706 50.2677 62.6777C49.2175 56.3555 48.932 49.9645 48.6677 43.5758C48.611 42.2299 48.7597 40.8721 47.6553 39.7583C46.3597 38.4503 44.8541 37.6825 43.0795 37.2465C41.4063 36.8341 40.1721 37.327 39.2446 38.6754C38.4305 39.8602 37.6116 41.0237 37.9585 42.6659C38.1331 43.4905 37.9845 44.4408 37.765 45.2773C37.2907 47.0711 36.6629 48.827 36.1154 50.6019C35.8063 51.6067 35.5868 51.7536 34.5909 51.4645C29.2434 49.9171 23.8959 48.3697 18.5508 46.8128C17.4629 46.4953 17.3496 46.2275 17.7885 45.1375C19.6222 40.5877 21.4534 36.0356 23.3059 31.4953C23.5585 30.8792 23.9242 30.3081 24.2428 29.7086C22.8316 29.4953 21.4487 29.2868 20.0658 29.0711C19.8346 29.0356 19.608 28.9574 19.3815 28.8958C17.7909 28.4503 16.9626 28.7275 16.1814 30.218C15.6929 31.1493 15.4357 32.2014 15.0558 33.1943C14.7183 34.0759 14.4918 35.0379 13.9726 35.7986C13.4086 36.6256 12.6864 37.5285 11.818 37.936C8.5 39.4905 5.07816 40.109 1.65396 38.1635C1.36369 37.9977 0.988472 37.6327 1.00027 37.3768C1.01207 37.0948 1.37549 36.7299 1.67284 36.5758C3.19025 35.7891 4.76194 35.1067 6.26755 34.301C9.26933 32.6943 11.1572 30.1564 12.0257 26.891C13.2575 22.2631 16.0682 19.0711 20.4953 17.3531C23.8464 16.0522 27.2352 14.8555 30.6074 13.6138C33.2482 12.6422 35.9384 12.6943 38.4824 13.7275C42.2323 15.2488 46.086 15.7654 50.0789 15.6067C50.5202 15.5901 50.9804 15.5616 51.3981 15.6683C51.66 15.7346 51.9951 16.0142 52.0494 16.256C52.1037 16.4977 51.9291 16.9574 51.7214 17.0664C48.1627 18.9455 44.755 21.2536 40.5308 21.3602C39.8677 21.3768 39.4146 21.5522 39.096 22.1351C38.9426 22.4171 38.7042 22.6517 38.5013 22.9076C38.303 23.1564 38.1048 23.4052 37.8429 23.7323C40.073 24.1635 42.1921 24.7086 44.3444 24.9574C46.8529 25.2488 48.9296 24.1896 50.6453 22.3602C52.9296 19.9218 55.2258 17.4977 57.5479 15.0972C57.8382 14.7986 58.3527 14.5024 58.709 14.5593C58.9757 14.6019 59.2612 15.1872 59.3509 15.5735C60.7432 21.6659 61.4795 27.8389 60.8494 34.0759C60.2854 39.6588 58.2134 44.7891 55.4901 49.6517C55.122 50.3081 55.1361 50.7488 55.6199 51.2654C56.4246 52.128 57.1491 53.0758 58.0152 53.8697C59.7804 55.4905 61.5739 55.7891 63.5893 54.4787C65.1987 53.4313 66.7067 52.1256 67.9834 50.6872C70.82 47.4953 72.9014 43.8389 73.9893 39.6517C74.2324 38.7157 74.584 37.7868 75.0324 36.9313C75.8867 35.2962 77.5928 34.4953 79.4123 34.7441C80.335 34.8697 81.0949 35.6067 81.0454 36.7536C80.9651 38.6327 80.7787 40.5261 80.4342 42.3744C79.7474 46.064 78.8696 49.718 78.1946 53.4076C77.9917 54.5142 78.0979 55.7133 78.2442 56.8436C78.702 60.3886 78.433 63.8792 77.6212 67.3341C77.4725 67.9668 77.607 68.2773 78.1309 68.6303C82.1687 71.3531 86.1852 74.109 90.2065 76.8578C90.4495 77.0237 90.7658 77.1683 90.8838 77.4052C91.0065 77.6517 91.056 78.1066 90.9121 78.2749C90.7351 78.481 90.3197 78.5664 90.013 78.5545C89.784 78.545 89.5575 78.3033 89.338 78.154C85.069 75.2441 80.8094 72.3246 76.5309 69.4313C75.9126 69.0119 75.679 68.6066 75.8867 67.8175C76.899 63.9716 77.0548 60.0995 76.6229 56.1161C76.3846 53.9123 76.8896 51.5877 77.2932 49.3602C77.876 46.1327 78.6996 42.9503 79.3581 39.7346C79.5398 38.8484 79.5327 37.9147 79.5492 37.0024C79.5586 36.41 79.2047 36.2204 78.6052 36.2773C77.4229 36.391 76.5899 36.9645 76.1887 38.064C75.6625 39.5048 75.2542 40.9905 74.7232 42.4313C72.9793 47.1588 70.2158 51.1991 66.4117 54.4882C65.5975 55.192 64.6276 55.7607 63.6506 56.2204C61.5173 57.2251 59.4689 56.9739 57.5833 55.5237C55.1668 53.6635 53.5361 51.1659 52.0234 48.5782C51.4736 47.6375 50.9686 46.6683 50.3102 45.7228C50.3526 46.6019 50.3621 47.4834 50.4447 48.3602C50.9025 53.1588 51.2329 57.9787 51.8913 62.7512C52.4883 67.0616 54.6335 70.6043 57.9893 73.4408C64.5781 79.0095 71.1079 84.6493 77.6566 90.2654C78.6218 91.0924 78.6312 91.2583 77.8784 92H77.1704L77.1799 91.9976ZM36.4317 43.5356C36.3939 42.6872 36.1933 41.8934 36.3585 41.1896C36.8541 39.0877 37.9207 37.3247 39.7567 36.0782C40.0399 35.8863 40.2854 35.4574 40.3255 35.1114C40.5379 33.2607 40.6865 31.4052 40.847 29.5474C40.9485 28.3555 41.0311 27.1612 41.1208 25.9716C40.0895 25.7583 39.1998 25.4455 38.3054 25.4242C37.3685 25.4029 36.2358 25.3744 35.5207 25.8507C32.9013 27.6019 30.119 28.8294 27.0204 29.3768C26.6664 29.4384 26.2535 29.6849 26.0411 29.974C24.0139 32.7228 23.3272 36.0806 21.8263 39.1777C26.7632 40.6517 31.5703 42.0853 36.434 43.5356H36.4317ZM48.0234 17.2488C47.8559 17.1991 47.7804 17.1564 47.7048 17.1588C44.4034 17.2488 41.293 16.4503 38.2346 15.2654C35.9172 14.3697 33.5196 14.2109 31.1361 15.0806C27.6481 16.3555 24.1461 17.5877 20.6983 18.9597C17.2387 20.3365 14.9449 22.8934 13.7767 26.4479C13.5643 27.0924 13.4416 27.7702 13.208 28.4052C11.9431 31.8318 9.70826 34.3958 6.41858 36.0071C5.54542 36.436 4.67698 36.8768 3.61267 37.41C6.31002 38.1635 8.64632 37.6493 10.9 36.692C12.5661 35.9858 13.0687 34.3744 13.5667 32.8081C13.6564 32.5261 13.7484 32.2441 13.8121 31.955C14.3384 29.5427 15.7732 27.8128 17.8688 26.6185C18.8127 26.0806 19.7921 25.5806 20.8045 25.1943C24.6582 23.7228 28.5567 22.3673 32.3892 20.8436C34.5791 19.974 36.7715 19.5664 39.1196 19.7868C42.3644 20.0901 45.2081 18.8744 48.0211 17.2488H48.0234ZM53.9963 48.9479C60.2807 38.8294 60.5261 28.0735 58.1002 17.2512C57.109 18.1327 56.0164 19.0403 55.004 20.0308C54.3574 20.6635 54.1332 21.4905 54.3833 22.41C55.3108 25.8176 55.5279 29.2891 55.1668 32.7844C54.7704 36.6446 53.6046 40.2796 51.7261 43.6801C51.6152 43.8815 51.5444 44.2157 51.6341 44.3981C52.3939 45.9195 53.1963 47.4171 53.9963 48.9455V48.9479ZM36.0706 45.0664C31.1502 43.5948 26.2299 42.1256 21.2717 40.6446C20.6204 42.2631 20.0045 43.7915 19.3555 45.4076C24.5001 46.9052 29.5691 48.3815 34.6806 49.8697C35.1502 48.2441 35.5939 46.7157 36.0706 45.0687V45.0664ZM53.0004 23.4763C52.9131 23.4408 52.8258 23.4076 52.7409 23.3721C51.9739 24.6517 50.9757 25.8507 50.5013 27.2323C49.9302 28.8887 48.8164 29.8555 47.4712 30.7275C47.3981 30.7749 47.3249 30.827 47.2541 30.8792C46.3904 31.4905 46.3644 31.6659 47.037 32.4597C47.2281 32.6849 47.4311 32.9005 47.6411 33.1067C48.6228 34.0569 49.2435 35.1754 49.5007 36.545C49.7344 37.7868 50.1261 39.0024 50.4683 40.2228C50.5816 40.6232 50.7609 41.0048 50.9827 41.5901C53.7721 35.5972 54.3314 29.6375 52.9981 23.4787L53.0004 23.4763ZM41.9514 35.474C44.1815 35.7986 46.3314 36.3578 48.0942 38.019C47.9762 36.1232 47.7166 35.5119 46.6405 34.3199C46.1874 33.8176 45.7084 33.3199 45.352 32.7512C44.67 31.6612 44.9131 30.6659 45.9562 29.9005C46.3833 29.5877 46.7845 29.2109 47.2518 28.9787C48.7526 28.2394 48.7998 26.6327 49.5125 25.41C47.3296 26.5095 45.0972 26.8958 42.6924 26.2796C42.4376 29.1256 42.1921 31.8602 41.9514 34.5972C41.9278 34.8578 41.9491 35.1209 41.9491 35.474H41.9514ZM19.9384 27.1801C26.7891 29.5853 35.0488 25.7417 37.7249 21.0569C36.4033 21.3555 35.2281 21.5 34.1402 21.8887C30.7325 23.1043 27.3602 24.4123 23.9714 25.6825C22.6287 26.1849 21.2835 26.6801 19.9384 27.1778V27.1801Z" stroke="#E4076D" stroke-linejoin="round" mask="url(#path-1-outside-1_1112_10566)"/>
<path d="M68.6843 1.00237C69.1421 1.52133 69.1233 2.01185 68.7126 2.58057C66.466 5.68957 64.2454 8.8199 62.0105 11.9384C61.6825 12.3957 61.2908 12.8223 60.7055 12.3602C60.1274 11.9052 60.4554 11.4431 60.7858 10.981C63.0041 7.88862 65.2106 4.78436 67.4265 1.6872C67.5964 1.44787 67.7923 1.22986 67.9763 1C68.2123 1 68.4483 1 68.6843 1V1.00237Z" stroke="#E4076D" stroke-linejoin="round" mask="url(#path-1-outside-1_1112_10566)"/>
<path d="M23.3862 63.109C26.8033 64.481 30.1308 65.8152 33.5007 67.1682C34.7089 63.6398 35.6741 60.1588 35.1502 56.4408C35.0629 55.8246 35.0039 55.2062 34.9378 54.59C34.8788 54.0498 35.0488 53.5474 35.634 53.6043C35.9361 53.6327 36.3939 54.0758 36.4482 54.3886C37.0311 57.8128 36.9579 61.199 35.9432 64.5711C34.2393 70.2275 32.6464 75.9194 30.9921 81.59C30.0552 84.8009 27.3154 86.3341 24.1248 85.417C19.1714 83.9929 14.2251 82.5497 9.28113 81.0924C6.21327 80.1896 4.65339 77.3791 5.53598 74.2938C7.26106 68.2725 9.03806 62.2654 10.7655 56.2464C11.6717 53.0924 13.5667 50.5355 15.6009 48.0663C15.7755 47.8554 16.3065 47.9408 16.6699 47.891C16.7171 48.2559 16.9295 48.7204 16.7809 48.9668C16.3443 49.6967 15.7732 50.3507 15.2375 51.019C13.621 53.0355 12.5779 55.3294 11.9053 57.8152C11.7803 58.2749 11.8652 58.5118 12.323 58.6919C15.4994 59.9455 18.6664 61.2204 21.9113 62.5166C22.6381 60.0142 23.3531 57.5498 24.0682 55.0853C24.3065 54.263 24.5425 53.4384 24.7832 52.6161C24.9343 52.1066 25.2245 51.7275 25.8027 51.9171C26.3502 52.0972 26.4304 52.5308 26.2723 53.0711C25.385 56.1066 24.5142 59.1445 23.6387 62.1825C23.5585 62.4644 23.4829 62.7464 23.3815 63.1137L23.3862 63.109ZM11.3437 59.9692C11.2564 60.1896 11.2044 60.2962 11.1714 60.4076C9.80738 65.1185 8.43629 69.827 7.08407 74.5426C6.37139 77.0237 7.39558 78.891 9.85222 79.6137C14.7112 81.0403 19.575 82.455 24.4387 83.8673C26.9449 84.5948 28.8092 83.564 29.5408 81.0521C30.2181 78.7251 30.8788 76.3957 31.5514 74.0663C32.0635 72.2891 32.5827 70.5118 33.1089 68.699C29.6753 67.3199 26.329 65.9763 22.9472 64.6185C22.7703 65.2133 22.6263 65.6919 22.4871 66.173C22.1567 67.308 21.8759 68.4621 21.4652 69.564C21.352 69.8649 20.8422 70.0166 20.5142 70.2346C20.3443 69.8768 20.1248 69.5308 20.0257 69.154C19.9738 68.9573 20.1295 68.7038 20.1956 68.4763C20.618 67.0095 21.0428 65.5403 21.4794 64.0237C18.0717 62.6588 14.7443 61.327 11.3484 59.9692H11.3437Z" stroke="#E4076D" stroke-linejoin="round" mask="url(#path-1-outside-1_1112_10566)"/>
<path d="M20.3868 58.0475C19.1432 57.6683 18.034 57.3697 16.9626 56.9669C16.7573 56.8887 16.552 56.3508 16.6252 56.1115C16.6983 55.8721 17.1656 55.5475 17.3874 55.5949C18.4777 55.8318 19.5562 56.1423 20.604 56.5214C20.8234 56.5996 21.0405 57.0996 21.0004 57.3674C20.9603 57.628 20.5898 57.8366 20.3845 58.0498L20.3868 58.0475Z" stroke="#E4076D" stroke-linejoin="round" mask="url(#path-1-outside-1_1112_10566)"/>
<path d="M19.7119 52.391C20.4836 52.6398 21.1278 52.7748 21.6918 53.0663C21.8995 53.1729 22.0765 53.7014 21.9892 53.9336C21.8995 54.1753 21.4582 54.4549 21.201 54.4289C20.6275 54.3673 20.0399 54.1895 19.5254 53.9289C19.2989 53.8128 19.0983 53.3625 19.1313 53.0924C19.162 52.8365 19.5113 52.6184 19.7095 52.3957L19.7119 52.391Z" stroke="#E4076D" stroke-linejoin="round" mask="url(#path-1-outside-1_1112_10566)"/>
<path d="M17.7744 67.6492C16.5331 67.2748 15.4499 66.9976 14.4115 66.5995C14.1897 66.5142 13.9891 65.9668 14.0434 65.6848C14.0859 65.4691 14.5885 65.1516 14.8174 65.2014C15.903 65.4383 16.9838 65.744 18.0245 66.1327C18.244 66.2156 18.4328 66.763 18.3903 67.0592C18.3573 67.3009 17.9537 67.4881 17.772 67.6492H17.7744Z" stroke="#E4076D" stroke-linejoin="round" mask="url(#path-1-outside-1_1112_10566)"/>
</svg>
